#!OML:ASF H:\Terrain\Patient Classification 1\Animal2\Wednesday\Animal2.ASF
:FULLY-SPECIFIED
:DEGREES
17
root 9.73145 17.5877 -33.1807 1.77934 -0.257445 -0.456189
lowerback 0.125994 -2.21277 -0.396571
upperback -0.860795 -2.94862 0.61968
thorax -0.898946 -1.46876 0.881396
lowerneck -2.58383 2.38907 13.2084
upperneck 7.71054 3.91822 -17.9772
head 3.28294 1.69867 -7.67364
rclavicle 1.20677e-014 -1.12313e-014
rhumerus -32.5889 5.39031 -91.283
rradius 20.7361
rwrist 15.8178
rhand -15.8469 20.7242
rfingers 7.12502
rthumb 10.3478 -9.00117
lclavicle 1.20677e-014 -1.12313e-014
lhumerus -39.3266 -9.11879 93.7116
lradius 27.5016
lwrist 11.0016
lhand -21.2822 24.2397
lfingers 7.12502
lthumb 5.10185 54.1583
rfemur -9.02127 -6.96186 21.7739
rtibia 27.5464
rfoot -23.8796 -2.26484
rtoes -0.810626
lfemur -11.9348 2.23536 -21.3118
ltibia 28.7167
lfoot -19.876 0.212385
ltoes -23.7116
18
root 9.73632 17.5872 -33.1832 1.80151 -0.16891 -0.358665
lowerback 0.14307 -2.21044 -0.467661
upperback -0.834613 -2.94623 0.596148
thorax -0.879407 -1.46728 0.896995
lowerneck -2.73574 2.51714 13.202
upperneck 7.86717 4.09797 -17.9617
head 3.38426 1.77833 -7.6596
rclavicle 6.57911e-014 -8.74653e-015
rhumerus -32.5675 5.37465 -91.2253
rradius 20.7952
rwrist 15.8094
rhand -15.8569 20.6558
rfingers 7.12502
rthumb 10.3382 -9.07008
lclavicle 6.57911e-014 -8.74653e-015
lhumerus -39.1695 -8.83744 93.4755
lradius 27.3561
lwrist 10.1675
lhand -20.9098 24.875
lfingers 7.12502
lthumb 5.4614 54.7846
rfemur -9.04739 -7.13058 21.6446
rtibia 27.5272
rfoot -23.8734 -2.17443
rtoes 0.799256
lfemur -11.9868 2.36923 -21.4295
ltibia 28.7205
lfoot -19.8629 0.142797
ltoes -24.6938
19
root 9.73988 17.5847 -33.1828 1.8056 -0.104539 -0.379111
lowerback 0.173499 -2.04286 -0.447477
upperback -0.839229 -2.72339 0.500744
thorax -0.910859 -1.3562 0.787987
lowerneck -2.68894 2.48107 13.7016
upperneck 7.82934 4.03089 -18.0758
head 3.36573 1.75959 -7.7906
rclavicle -2.34756e-014 -2.93207e-015
rhumerus -32.6631 4.79441 -91.1268
rradius 20.8972
rwrist 15.9921
rhand -15.9778 20.4264
rfingers 7.12502
rthumb 10.2216 -9.30521
lclavicle -2.34756e-014 -2.93207e-015
lhumerus -39.1792 -9.16557 93.3625
lradius 27.315
lwrist 9.44357
lhand -20.537 25.9556
lfingers 7.12502
lthumb 5.82134 55.8556
rfemur -9.02378 -7.17191 21.6569
rtibia 27.5141
rfoot -23.8681 -2.30057
rtoes -0.033578
lfemur -11.9842 2.36394 -21.4193
ltibia 28.7189
lfoot -19.7572 0.220089
ltoes -25.2404
20
root 9.74296 17.586 -33.179 1.84707 -0.0738843 -0.465123
lowerback 0.222459 -2.17176 -0.421676
upperback -0.852958 -2.89398 0.656426
thorax -0.942799 -1.44094 0.936421
lowerneck -2.53429 2.76226 13.569
upperneck 7.53669 4.41962 -18.2094
head 3.31983 1.95504 -7.78983
rclavicle -4.47576e-015 3.8763e-015
rhumerus -32.6863 5.46987 -91.1903
rradius 20.9913
rwrist 15.9156
rhand -15.9331 20.4217
rfingers 7.12502
rthumb 10.2647 -9.30787
lclavicle -4.47576e-015 3.8763e-015
lhumerus -39.2938 -9.00057 93.5955
lradius 27.5317
lwrist 10.4274
lhand -20.8959 25.4413
lfingers 7.12502
lthumb 5.47485 55.3506
rfemur -9.01451 -7.12623 21.7509
rtibia 27.4767
rfoot -23.8652 -2.51106
rtoes -1.77552
lfemur -12.0149 2.4172 -21.3334
ltibia 28.7403
lfoot -19.8503 0.028555
ltoes -24.8665
21
root 9.7478 17.5882 -33.1747 1.93402 -0.101099 -0.546331
lowerback 0.188415 -2.17381 -0.344221
upperback -0.914211 -2.89546 0.71543
thorax -0.987217 -1.44171 0.953697
lowerneck -2.35918 2.88926 13.6024
upperneck 7.42778 4.60625 -18.2962
head 3.29195 2.05543 -7.81603
rclavicle -7.10578e-015 -8.74653e-015
rhumerus -32.7693 5.58664 -91.1648
rradius 21.042
rwrist 15.9005
rhand -15.9514 20.8546
rfingers 7.12502
rthumb 10.247 -8.87585
lclavicle -7.10578e-015 -8.74653e-015
lhumerus -39.4226 -8.95805 93.6646
lradius 27.6943
lwrist 10.6515
lhand -20.7875 25.8321
lfingers 7.12502
lthumb 5.57952 55.7386
rfemur -9.06482 -7.29464 21.812
rtibia 27.4049
rfoot -23.9083 -2.39136
rtoes -1.6137
lfemur -12.1224 2.60134 -21.2621
ltibia 28.7849
lfoot -20.0182 -0.185245
ltoes -24.9438
22
root 9.75283 17.5889 -33.1717 1.97708 -0.0905572 -0.555884
lowerback 0.135083 -2.11302 -0.292
upperback -0.934333 -2.81429 0.671261
thorax -0.984159 -1.4017 0.877054
lowerneck -2.26442 2.91591 13.79
upperneck 7.382 4.64311 -18.3513
head 3.2739 2.08263 -7.86682
rclavicle 1.52486e-015 1.03368e-014
rhumerus -32.735 5.56703 -91.2231
rradius 20.96
rwrist 15.5987
rhand -16.0796 20.9087
rfingers 7.12502
rthumb 10.1234 -8.82775
lclavicle 1.52486e-015 1.03368e-014
lhumerus -39.4043 -8.88131 93.4655
lradius 27.7138
lwrist 9.99645
lhand -20.3761 27.0616
lfingers 7.12502
lthumb 5.9767 56.9574
rfemur -9.07248 -7.44409 21.7897
rtibia 27.3382
rfoot -23.9438 -2.16175
rtoes -0.450206
lfemur -12.1768 2.57575 -21.2716
ltibia 28.8245
lfoot -20.0142 -0.166052
ltoes -24.5529
23
root 9.75363 17.5887 -33.1728 1.97589 -0.0219202 -0.603142
lowerback 0.156872 -2.09845 -0.250682
upperback -0.912905 -2.79487 0.641791
thorax -0.978179 -1.39251 0.824113
lowerneck -2.1423 2.97399 14.0729
upperneck 7.17792 4.71425 -18.5468
head 3.21678 2.12888 -7.97885
rclavicle 9.3124e-015 8.49804e-015
rhumerus -32.7151 5.61866 -91.3308
rradius 20.9779
rwrist 15.3656
rhand -16.1896 20.7024
rfingers 7.12502
rthumb 10.0172 -9.0392
lclavicle 9.3124e-015 8.49804e-015
lhumerus -39.4705 -9.35682 93.6546
lradius 27.8034
lwrist 11.0804
lhand -20.9483 25.9029
lfingers 7.12502
lthumb 5.42424 55.8135
rfemur -9.02893 -7.22033 21.8666
rtibia 27.2839
rfoot -23.8854 -2.31978
rtoes 0.116205
lfemur -12.1952 2.39921 -21.2172
ltibia 28.8617
lfoot -20.0219 -0.139581
ltoes -23.7728
24
root 9.75431 17.5888 -33.1718 2.02393 -0.0534916 -0.629592
lowerback 0.147909 -2.11241 -0.295757
upperback -0.910029 -2.81344 0.690537
thorax -0.965325 -1.4013 0.898736
lowerneck -2.00442 3.15567 14.1818
upperneck 6.99106 4.96552 -18.7011
head 3.18888 2.26109 -8.03723
rclavicle 7.05996e-015 3.18055e-015
rhumerus -32.7422 5.81998 -91.3832
rradius 21.1066
rwrist 15.303
rhand -16.3156 20.8838
rfingers 7.12502
rthumb 9.89566 -8.86368
lclavicle 7.05996e-015 3.18055e-015
lhumerus -39.5752 -9.62282 93.9033
lradius 27.9065
lwrist 12.0169
lhand -21.3519 24.6621
lfingers 7.12502
lthumb 5.03456 54.5823
rfemur -9.05445 -6.99687 21.9187
rtibia 27.2456
rfoot -23.8133 -2.52558
rtoes -0.777464
lfemur -12.2611 2.45866 -21.1914
ltibia 28.8899
lfoot -20.0276 -0.057492
ltoes -24.4276
25
root 9.76035 17.5886 -33.1681 2.07667 -0.0231576 -0.685987
lowerback 0.153323 -2.13607 -0.259825
upperback -0.967775 -2.84391 0.763655
thorax -1.02503 -1.41617 0.955381
lowerneck -1.78965 3.35497 14.2306
upperneck 6.8737 5.25593 -18.7872
head 3.1719 2.4158 -8.06161
rclavicle -9.86042e-015 -1.05356e-014
rhumerus -32.8203 5.8927 -91.3364
rradius 21.15
rwrist 15.2939
rhand -16.2089 20.7977
rfingers 7.12502
rthumb 9.99865 -8.94484
lclavicle -9.86042e-015 -1.05356e-014
lhumerus -39.6876 -9.57426 94.0082
lradius 27.9111
lwrist 11.9792
lhand -21.2702 24.7194
lfingers 7.12502
lthumb 5.11347 54.6377
rfemur -9.10378 -7.11575 21.9614
rtibia 27.2368
rfoot -23.7631 -2.54312
rtoes -1.15461
lfemur -12.3269 2.50923 -21.1527
ltibia 28.8994
lfoot -19.9965 -0.00611557
ltoes -25.1517
26
root 9.76703 17.5881 -33.1668 2.09969 0.0462257 -0.674514
lowerback 0.124016 -2.15651 -0.242277
upperback -0.953094 -2.87106 0.772863
thorax -0.993471 -1.43001 0.953617
lowerneck -1.72753 3.58353 14.2343
upperneck 6.79097 5.56635 -18.7499
head 3.19105 2.57497 -8.03289
rclavicle 8.09038e-015 5.66536e-015
rhumerus -32.7007 5.68513 -91.2033
rradius 21.0139
rwrist 15.4853
rhand -15.9291 20.2317
rfingers 7.12502
rthumb 10.2686 -9.49765
lclavicle 8.09038e-015 5.66536e-015
lhumerus -39.6286 -9.54756 94.0315
lradius 27.7969
lwrist 11.8939
lhand -21.2777 24.8286
lfingers 7.12502
lthumb 5.10618 54.7471
rfemur -9.12531 -7.06467 21.9388
rtibia 27.2636
rfoot -23.7374 -2.64117
rtoes 0.136424
lfemur -12.3647 2.55944 -21.1808
ltibia 28.8897
lfoot -20.0118 -0.288967
ltoes -24.4541
27
root 9.77462 17.589 -33.1634 2.07925 0.00591149 -0.498511
lowerback 0.103361 -2.1336 -0.352402
upperback -0.878879 -2.84212 0.696496
thorax -0.904928 -1.4155 0.933953
lowerneck -1.87881 3.82727 14.1831
upperneck 6.82478 5.88305 -18.6162
head 3.27763 2.72631 -7.95842
rclavicle 3.50109e-014 5.1684e-015
rhumerus -32.5093 5.66328 -91.1912
rradius 20.8917
rwrist 15.4582
rhand -15.9414 19.8289
rfingers 7.12502
rthumb 10.2567 -9.90099
lclavicle 3.50109e-014 5.1684e-015
lhumerus -39.5293 -9.5053 93.9612
lradius 27.7098
lwrist 11.782
lhand -21.2384 24.566
lfingers 7.12502
lthumb 5.14417 54.4836
rfemur -9.10589 -6.99093 21.7088
rtibia 27.2957
rfoot -23.7639 -2.64699
rtoes -0.0717763
lfemur -12.3178 2.6683 -21.399
ltibia 28.8781
lfoot -20.0452 -0.507386
ltoes -23.7038
28
root 9.78338 17.5879 -33.1562 2.0106 -0.0756481 -0.443639
lowerback 0.165342 -2.0636 -0.334264
upperback -0.860351 -2.74918 0.634366
thorax -0.926264 -1.36935 0.861751
lowerneck -1.79791 3.9938 14.2472
upperneck 6.78592 6.11188 -18.5714
head 3.29294 2.84707 -7.94235
rclavicle -1.68831e-014 -1.39149e-014
rhumerus -32.4998 5.79183 -91.3064
rradius 20.9124
rwrist 15.1027
rhand -15.9425 19.9343
rfingers 7.12502
rthumb 10.2557 -9.79569
lclavicle -1.68831e-014 -1.39149e-014
lhumerus -39.649 -9.65494 93.9926
lradius 27.781
lwrist 11.8099
lhand -20.9962 24.6373
lfingers 7.12502
lthumb 5.37804 54.549
rfemur -9.03533 -7.1533 21.5801
rtibia 27.3181
rfoot -23.7945 -2.55059
rtoes -1.44601
lfemur -12.1875 2.72354 -21.4948
ltibia 28.8693
lfoot -20.1145 -0.431405
ltoes -23.8702
29
root 9.79063 17.5845 -33.1517 1.99049 -0.101615 -0.555529
lowerback 0.223904 -2.01885 -0.223828
upperback -0.885589 -2.68833 0.668517
thorax -0.989381 -1.33935 0.837498
lowerneck -1.42536 4.18399 14.3277
upperneck 6.48132 6.38311 -18.6549
head 3.19283 3.00401 -7.97337
rclavicle 1.47322e-014 9.34288e-015
rhumerus -32.6167 5.8686 -91.3506
rradius 21.0696
rwrist 14.9284
rhand -15.9514 20.2093
rfingers 7.12502
rthumb 10.2471 -9.52115
lclavicle 1.47322e-014 9.34288e-015
lhumerus -39.7848 -9.68953 93.9935
lradius 27.9325
lwrist 11.4754
lhand -20.6796 25.708
lfingers 7.12502
lthumb 5.68366 55.6118
rfemur -9.00924 -7.24104 21.6651
rtibia 27.3445
rfoot -23.8132 -2.57286
rtoes -1.54166
lfemur -12.1329 2.9059 -21.3888
ltibia 28.8502
lfoot -20.1887 -0.49761
ltoes -24.3394
30
root 9.79638 17.5834 -33.1527 2.00416 -0.0414193 -0.628928
lowerback 0.356298 -1.98823 -0.202775
upperback -0.948153 -2.64654 0.710924
thorax -1.12727 -1.31784 0.875394
lowerneck -1.0985 4.36932 14.5902
upperneck 6.19644 6.65673 -18.9617
head 3.12102 3.15868 -8.11228
rclavicle -9.95243e-015 1.54058e-014
rhumerus -32.8883 5.7637 -91.2547
rradius 21.293
rwrist 15.2241
rhand -16.3636 20.6496
rfingers 7.12502
rthumb 9.8494 -9.10006
lclavicle -9.95243e-015 1.54058e-014
lhumerus -39.8518 -9.67749 93.9342
lradius 28.0033
lwrist 10.7944
lhand -20.5261 26.6581
lfingers 7.12502
lthumb 5.83186 56.5579
rfemur -9.02067 -7.20827 21.7406
rtibia 27.3624
rfoot -23.8682 -2.66256
rtoes -1.65644
lfemur -12.1487 2.91514 -21.3239
ltibia 28.8338
lfoot -20.2376 -0.510755
ltoes -24.6695
